<svg version="1.1" xmlns="http://www.w3.org/2000/svg" xmlns:xlink="http://www.w3.org/1999/xlink" width="530.98655" height="350.05235" viewBox="3.7167,5.23555,530.98655,350.05235"><g id="Page Border" fill="none" fill-rule="nonzero" stroke="none" stroke-width="1" stroke-linecap="butt" stroke-linejoin="miter" stroke-miterlimit="10" stroke-dasharray="" stroke-dashoffset="0" font-family="sans-serif" font-weight="normal" font-size="12" text-anchor="start" style="mix-blend-mode: normal"/><g id="Profile" fill="none" fill-rule="nonzero" stroke="none" stroke-width="1" stroke-linecap="butt" stroke-linejoin="miter" stroke-miterlimit="10" stroke-dasharray="" stroke-dashoffset="0" font-family="sans-serif" font-weight="normal" font-size="12" text-anchor="start" style="mix-blend-mode: normal"/><g id="Voronoi" fill="#add8e6" fill-rule="nonzero" stroke="#000000" stroke-width="1" stroke-linecap="butt" stroke-linejoin="miter" stroke-miterlimit="10" stroke-dasharray="" stroke-dashoffset="0" font-family="none" font-weight="none" font-size="none" text-anchor="none" style="mix-blend-mode: normal"><path d="M97.66395,213.08692c-8.14439,10.24837 -8.14439,10.24837 -19.7587,8.08144c-11.61431,-2.16693 -11.61431,-2.16693 -12.92365,-19.77595c-1.30934,-17.60902 -1.30934,-17.60902 2.95953,-22.44435c4.26886,-4.83534 4.26886,-4.83534 12.41128,-3.21008c8.14242,1.62526 8.14242,1.62526 16.79917,14.36292c8.65675,12.73766 8.65675,12.73766 0.51237,22.98603z"/><path d="M482.49523,333.77972c-0.49064,-19.85292 -0.49064,-19.85292 24.97141,-23.74252c25.46206,-3.8896 25.46206,-3.8896 25.46206,19.85292c0,23.74252 0,23.74252 -24.97141,23.74252c-24.97141,0 -24.97141,0 -25.46206,-19.85292z"/><path d="M105.72569,150.46827c-13.91737,9.6107 -13.91737,9.6107 -21.59194,8.07883c-7.67457,-1.53187 -7.67457,-1.53187 -9.46587,-8.78177c-1.7913,-7.2499 -1.7913,-7.2499 7.20543,-20.72265c8.99673,-13.47276 8.99673,-13.47276 18.38077,-12.54604c9.38404,0.92672 9.38404,0.92672 14.38651,12.64382c5.00247,11.7171 5.00247,11.7171 -8.9149,21.32781z"/><path d="M458.97306,179.52991c3.65792,-11.34953 3.65792,-11.34953 17.05591,-11.9628c13.39798,-0.61327 13.39798,-0.61327 13.71407,-0.26191c0.31608,0.35136 0.31608,0.35136 -1.65743,15.08947c-1.97351,14.73811 -1.97351,14.73811 -12.54385,15.87186c-10.57034,1.13376 -10.57034,1.13376 -15.39848,-3.12667c-4.82814,-4.26043 -4.82814,-4.26043 -1.17022,-15.60996z"/><path d="M383.04753,177.62592c10.17283,-15.93248 10.17283,-15.93248 11.94218,-15.26497c1.76934,0.66751 1.76934,0.66751 10.97286,15.349c9.20352,14.68149 9.20352,14.68149 0.46817,24.48987c-8.73535,9.80838 -8.73535,9.80838 -21.14569,0.58348c-12.41034,-9.2249 -12.41034,-9.2249 -2.23751,-25.15738z"/><path d="M458.8068,95.7094c3.74331,-6.50929 3.74331,-6.50929 15.75006,-8.00157c12.00675,-1.49228 12.00675,-1.49228 17.82113,10.95308c5.81439,12.44536 5.81439,12.44536 2.04942,17.15276c-3.76497,4.7074 -3.76497,4.7074 -19.831,1.61434c-16.06603,-3.09307 -16.06603,-3.09307 -17.79947,-9.15119c-1.73345,-6.05812 -1.73345,-6.05812 2.00986,-12.56741z"/><path d="M128.22888,300.65751c-1.55055,8.36922 -1.55055,8.36922 -9.23998,14.22595c-7.68943,5.85673 -7.68943,5.85673 -26.78282,-3.01069c-19.09339,-8.86742 -19.09339,-8.86742 -20.02877,-11.20384c-0.93537,-2.33641 -0.93537,-2.33641 16.42136,-16.48349c17.35673,-14.14708 17.35673,-14.14708 21.13327,-13.16508c3.77654,0.982 3.77654,0.982 11.91201,11.12497c8.13547,10.14297 8.13547,10.14297 6.58492,18.51219z"/><path d="M336.74657,147.05876c9.64041,-10.24115 9.64041,-10.24115 26.7722,-6.00826c17.1318,4.2329 17.1318,4.2329 19.40553,7.96908c2.27373,3.73618 2.27373,3.73618 -9.88555,22.77981c-12.15928,19.04362 -12.15928,19.04362 -22.41281,20.40349c-10.25352,1.35987 -10.25352,1.35987 -16.88665,-16.77155c-6.63313,-18.13142 -6.63313,-18.13142 3.00728,-28.37257z"/><path d="M482.89359,19.02577c1.21138,11.23347 1.21138,11.23347 -13.6437,14.40211c-14.85508,3.16863 -14.85508,3.16863 -14.92708,-11.23347c-0.072,-14.40211 -0.072,-14.40211 13.6437,-14.40211c13.7157,0 13.7157,0 14.92708,11.23347z"/><path d="M291.68178,70.97693c-0.8189,-12.26765 -0.8189,-12.26765 12.58184,-23.03165c13.40074,-10.764 13.40074,-10.764 24.1933,-2.13719c10.79256,8.62681 10.79256,8.62681 11.26406,19.37333c0.47149,10.74652 0.47149,10.74652 -4.27208,16.89008c-4.74357,6.14356 -4.74357,6.14356 -23.8459,3.65832c-19.10232,-2.48524 -19.10232,-2.48524 -19.92122,-14.75289z"/><path d="M23.31233,8.08248c16.763,0 16.763,0 13.99175,14.84536c-2.77125,14.84536 -2.77125,14.84536 -16.00383,20.53074c-13.23258,5.68538 -13.23258,5.68538 -13.99175,5.60988c-0.75917,-0.0755 -0.75917,-0.0755 -0.75917,-20.53074c0,-20.45523 0,-20.45523 16.763,-20.45523z"/><path d="M217.43486,347.22254c0.11671,7.56536 0.11671,7.56536 -21.70243,7.56536c-21.81914,0 -21.81914,0 -22.03167,-8.84498c-0.21254,-8.84498 -0.21254,-8.84498 10.19964,-19.11485c10.41217,-10.26986 10.41217,-10.26986 21.91497,1.27962c11.50279,11.54949 11.50279,11.54949 11.6195,19.11485z"/><path d="M167.12535,264.40443c-2.59376,12.32077 -2.59376,12.32077 -14.80079,15.70215c-12.20702,3.38139 -12.20702,3.38139 -19.62222,-5.86357c-7.4152,-9.24496 -7.4152,-9.24496 7.18246,-22.53225c14.59766,-13.28729 14.59766,-13.28729 22.21598,-6.45719c7.61832,6.8301 7.61832,6.8301 5.02456,19.15086z"/><path d="M82.19438,275.34388c-14.61094,11.90905 -14.61094,11.90905 -17.66981,10.16108c-3.05887,-1.74796 -3.05887,-1.74796 -6.61966,-20.57272c-3.56079,-18.82475 -3.56079,-18.82475 1.73508,-22.82611c5.29587,-4.00136 5.29587,-4.00136 15.89487,-2.02386c10.599,1.9775 10.599,1.9775 15.93473,12.66503c5.33573,10.68753 5.33573,10.68753 -9.27521,22.59658z"/><path d="M353.52834,64.71211c-0.453,-10.3249 -0.453,-10.3249 9.98287,-16.4182c10.43586,-6.0933 10.43586,-6.0933 21.92672,2.81322c11.49086,8.90652 11.49086,8.90652 8.68281,19.34809c-2.80805,10.44157 -2.80805,10.44157 -21.47373,7.51168c-18.66568,-2.92989 -18.66568,-2.92989 -19.11868,-13.25479z"/><path d="M309.18728,247.4583c12.385,-14.65861 12.385,-14.65861 23.57956,0.55546c11.19456,15.21407 11.19456,15.21407 2.73626,27.99906c-8.4583,12.78499 -8.4583,12.78499 -15.34808,13.53623c-6.88979,0.75124 -6.88979,0.75124 -8.04725,0.26483c-1.15747,-0.48641 -1.15747,-0.48641 -8.23148,-14.09169c-7.07401,-13.60528 -7.07401,-13.60528 5.31099,-28.26389z"/><path d="M209.75591,231.76002c-4.8536,6.75218 -4.8536,6.75218 -17.43836,8.57363c-12.58476,1.82144 -12.58476,1.82144 -20.8029,-5.54642c-8.21814,-7.36786 -8.21814,-7.36786 -9.45083,-13.74155c-1.23269,-6.37369 -1.23269,-6.37369 16.64219,-17.74038c17.87487,-11.36669 17.87487,-11.36669 26.88919,5.16793c9.01432,16.53461 9.01432,16.53461 4.16072,23.2868z"/><path d="M175.65398,72.55025c-6.8836,13.62143 -6.8836,13.62143 -20.31981,10.77158c-13.43621,-2.84985 -13.43621,-2.84985 -15.10194,-13.46284c-1.66573,-10.61299 -1.66573,-10.61299 11.45606,-15.68657c13.12178,-5.07358 13.12178,-5.07358 21.98554,-0.15859c8.86376,4.91499 8.86376,4.91499 1.98016,18.53643z"/><path d="M486.30844,263.96151c14.94105,-6.36362 14.94105,-6.36362 29.46508,0.86814c14.52403,7.23176 14.52403,7.23176 14.52403,18.45173c0,11.21997 0,11.21997 -24.54025,14.96875c-24.54025,3.74879 -24.54025,3.74879 -29.66078,-1.75563c-5.12053,-5.50442 -5.12053,-5.50442 -4.92482,-15.8369c0.1957,-10.33247 0.1957,-10.33247 15.13675,-16.69609z"/><path d="M50.04119,80.73261c-10.75327,4.03213 -10.75327,4.03213 -23.71261,-8.77397c-12.95933,-12.8061 -12.95933,-12.8061 -0.2188,-18.28007c12.74053,-5.47397 12.74053,-5.47397 24.66529,2.20479c11.92476,7.67876 11.92476,7.67876 10.97208,14.24794c-0.95268,6.56917 -0.95268,6.56917 -11.70596,10.60131z"/><path d="M252.37967,154.97244c-6.90845,-1.95727 -6.90845,-1.95727 -15.84626,-18.79237c-8.93781,-16.8351 -8.93781,-16.8351 -3.69695,-24.26098c5.24086,-7.42589 5.24086,-7.42589 23.27967,-8.21385c18.03881,-0.78796 18.03881,-0.78796 19.51884,19.83638c1.48003,20.62435 1.48003,20.62435 -7.43341,27.00622c-8.91344,6.38187 -8.91344,6.38187 -15.82189,4.4246z"/><path d="M338.76909,316.14702c8.54788,8.0025 8.54788,8.0025 7.32698,21.00308c-1.2209,13.00058 -1.2209,13.00058 -15.43443,13.00058c-14.21353,0 -14.21353,0 -13.71061,-20.30703c0.50291,-20.30703 0.50291,-20.30703 6.88654,-21.00308c6.38363,-0.69605 6.38363,-0.69605 14.93151,7.30645z"/><path d="M252.52002,246.16297c7.52795,12.12881 7.52795,12.12881 -1.90803,21.57606c-9.43598,9.44725 -9.43598,9.44725 -15.57003,7.85963c-6.13405,-1.58762 -6.13405,-1.58762 -11.40053,-14.89082c-5.26648,-13.30321 -5.26648,-13.30321 -0.9441,-19.31637c4.32238,-6.01317 4.32238,-6.01317 13.30856,-6.68523c8.98618,-0.67207 8.98618,-0.67207 16.51413,11.45674z"/><path d="M230.10043,346.85697c-0.11445,-7.41879 -0.11445,-7.41879 11.1129,-18.47758c11.22734,-11.05878 11.22734,-11.05878 16.94197,-8.77436c5.71463,2.28442 5.71463,2.28442 9.28477,18.47758c3.57013,16.19316 3.57013,16.19316 -16.82753,16.19316c-20.39766,0 -20.39766,0 -20.51211,-7.41879z"/><path d="M476.99702,212.77794c11.91882,-1.27839 11.91882,-1.27839 15.52219,1.58083c3.60337,2.85923 3.60337,2.85923 3.41473,17.52986c-0.18864,14.67064 -0.18864,14.67064 -15.23991,21.0812c-15.05127,6.41056 -15.05127,6.41056 -18.3865,2.29074c-3.33524,-4.11983 -3.33524,-4.11983 -0.28228,-22.66204c3.05295,-18.54221 3.05295,-18.54221 14.97178,-19.8206z"/><path d="M520.74426,252.74201c-13.459,-6.70147 -13.459,-6.70147 -13.28547,-20.19677c0.17353,-13.4953 0.17353,-13.4953 13.459,-15.58234c13.28547,-2.08704 13.28547,-2.08704 13.28547,20.19677c0,22.28381 0,22.28381 -13.459,15.58234z"/><path d="M346.38279,111.51018c-3.31777,-12.8996 -3.31777,-12.8996 1.28211,-18.85705c4.59988,-5.95746 4.59988,-5.95746 23.43924,-3.0003c18.83937,2.95715 18.83937,2.95715 20.45359,6.22473c1.61423,3.26758 1.61423,3.26758 -3.7774,19.93816c-5.39163,16.67059 -5.39163,16.67059 -21.7357,12.63232c-16.34407,-4.03827 -16.34407,-4.03827 -19.66184,-16.93786z"/><path d="M102.06349,100.13137c-10.1774,-1.00507 -10.1774,-1.00507 -17.51106,-10.48086c-7.33366,-9.4758 -7.33366,-9.4758 -6.32902,-16.40322c1.00464,-6.92742 1.00464,-6.92742 6.87145,-12.21637c5.86681,-5.28895 5.86681,-5.28895 19.27985,-4.60982c13.41304,0.67912 13.41304,0.67912 15.75522,2.73437c2.34218,2.05525 2.34218,2.05525 4.14263,13.52661c1.80045,11.47136 1.80045,11.47136 -5.11561,19.96286c-6.91606,8.4915 -6.91606,8.4915 -17.09346,7.48644z"/><path d="M518.50179,61.40832c-12.84708,-0.46694 -12.84708,-0.46694 -14.80731,-10.53078c-1.96023,-10.06384 -1.96023,-10.06384 12.84708,-11.93038c14.80731,-1.86654 14.80731,-1.86654 14.80731,10.53078c0,12.39732 0,12.39732 -12.84708,11.93038z"/><path d="M292.20218,216.35084c19.03853,7.2274 19.03853,7.2274 19.02558,7.76238c-0.01295,0.53498 -0.01295,0.53498 -11.82656,14.51731c-11.81361,13.98232 -11.81361,13.98232 -18.47452,13.22927c-6.66091,-0.75305 -6.66091,-0.75305 -14.16608,-12.84515c-7.50517,-12.09211 -7.50517,-12.09211 -0.55106,-20.99165c6.95411,-8.89955 6.95411,-8.89955 25.99263,-1.67215z"/><path d="M418.12309,334.83324c-1.43215,-18.33958 -1.43215,-18.33958 18.88281,-25.66802c20.31496,-7.32843 20.31496,-7.32843 25.64943,-1.59404c5.33447,5.7344 5.33447,5.7344 5.8271,25.66802c0.49264,19.93362 0.49264,19.93362 -24.21727,19.93362c-24.70991,0 -24.70991,0 -26.14206,-18.33958z"/><path d="M335.10263,214.26365c5.73558,-7.83959 5.73558,-7.83959 16.28014,-9.23806c10.54456,-1.39846 10.54456,-1.39846 25.79931,9.94075c15.25475,11.33921 15.25475,11.33921 16.20914,19.09874c0.95439,7.75953 0.95439,7.75953 -5.00569,15.62309c-5.96008,7.86356 -5.96008,7.86356 -20.04169,7.70128c-14.0816,-0.16228 -14.0816,-0.16228 -26.54431,-17.09985c-12.46271,-16.93757 -12.46271,-16.93757 -12.4476,-17.56197c0.01511,-0.6244 0.01511,-0.6244 5.75069,-8.46399z"/><path d="M29.07951,187.02824c20.81207,-1.05047 20.81207,-1.05047 22.14286,16.84696c1.33078,17.89743 1.33078,17.89743 -4.56745,22.35391c-5.89823,4.45648 -5.89823,4.45648 -22.14286,2.3022c-16.24462,-2.15428 -16.24462,-2.15428 -16.24462,-21.30344c0,-19.14916 0,-19.14916 20.81207,-20.19963z"/><path d="M73.62214,97.90028c7.32576,9.46559 7.32576,9.46559 -2.42108,24.06164c-9.74684,14.59605 -9.74684,14.59605 -23.85615,6.23411c-14.10931,-8.36194 -14.10931,-8.36194 -8.9064,-19.8142c5.2029,-11.45226 5.2029,-11.45226 16.53039,-15.6997c11.32748,-4.24744 11.32748,-4.24744 18.65324,5.21815z"/><path d="M271.41483,182.31621c-2.55617,-13.79964 -2.55617,-13.79964 6.48864,-20.27558c9.04482,-6.47594 9.04482,-6.47594 23.08219,-3.73092c14.03737,2.74502 14.03737,2.74502 20.66235,20.85414c6.62497,18.10912 6.62497,18.10912 1.05455,25.72296c-5.57042,7.61384 -5.57042,7.61384 -27.15099,-0.57856c-21.58057,-8.1924 -21.58057,-8.1924 -24.13674,-21.99204z"/><path d="M5.05368,62.55095c0.83698,0.08324 0.83698,0.08324 15.67643,14.74723c14.83945,14.66399 14.83945,14.66399 9.18373,27.11296c-5.65573,12.44898 -5.65573,12.44898 -15.67643,15.16215c-10.02071,2.71318 -10.02071,2.71318 -10.02071,-27.1962c0,-29.90938 0,-29.90938 0.83698,-29.82614z"/><path d="M251.9407,207.90444c-7.6906,9.84207 -7.6906,9.84207 -17.5984,10.58306c-9.9078,0.74099 -9.9078,0.74099 -18.75884,-15.49412c-8.85103,-16.23511 -8.85103,-16.23511 -8.83963,-16.28422c0.0114,-0.04911 0.0114,-0.04911 17.11603,-9.74914c17.10463,-9.70004 17.10463,-9.70004 23.94413,-7.7623c6.8395,1.93773 6.8395,1.93773 9.3334,15.40119c2.4939,13.46346 2.4939,13.46346 -5.19669,23.30553z"/><path d="M420.82682,24.79977c-4.07135,-11.86549 -4.07135,-11.86549 6.27579,-11.86549c10.34714,0 10.34714,0 10.40101,10.77538c0.05387,10.77538 0.05387,10.77538 -0.90693,11.95157c-0.9608,1.17619 -0.9608,1.17619 -6.32965,1.09012c-5.36886,-0.08607 -5.36886,-0.08607 -9.44021,-11.95157z"/><path d="M241.27753,301.70715c4.12443,9.18951 4.12443,9.18951 -6.86258,20.01157c-10.98702,10.82206 -10.98702,10.82206 -22.02551,-0.26123c-11.03849,-11.0833 -11.03849,-11.0833 -10.9463,-13.59626c0.09219,-2.51296 0.09219,-2.51296 11.40706,-10.60906c11.31486,-8.0961 11.31486,-8.0961 17.80888,-6.41531c6.49402,1.68078 6.49402,1.68078 10.61845,10.87029z"/><path d="M532.959,15.99078c0,10.25523 0,10.25523 -17.18672,12.42171c-17.18672,2.16648 -17.18672,2.16648 -17.45964,1.8995c-0.27292,-0.26698 -0.27292,-0.26698 -1.58365,-12.42171c-1.31073,-12.15473 -1.31073,-12.15473 17.45964,-12.15473c18.77037,0 18.77037,0 18.77037,10.25523z"/><path d="M418.12481,214.89831c8.95671,-10.05693 8.95671,-10.05693 16.06296,-10.38769c7.10625,-0.33076 7.10625,-0.33076 11.98705,3.97614c4.8808,4.3069 4.8808,4.3069 2.14372,20.93062c-2.73708,16.62372 -2.73708,16.62372 -20.14765,12.55344c-17.41057,-4.07028 -17.41057,-4.07028 -18.20668,-10.54293c-0.79611,-6.47265 -0.79611,-6.47265 8.1606,-16.52958z"/><path d="M324.39454,17.56166c-0.45396,-11.22538 -0.45396,-11.22538 24.56622,-11.22538c25.02018,0 25.02018,0 22.11101,13.51033c-2.90917,13.51033 -2.90917,13.51033 -13.77242,19.85318c-10.86325,6.34285 -10.86325,6.34285 -21.65706,-2.28495c-10.7938,-8.6278 -10.7938,-8.6278 -11.24776,-19.85318z"/><path d="M120.06344,342.03007c0.63565,-12.19424 0.63565,-12.19424 7.7828,-17.63795c7.14715,-5.44371 7.14715,-5.44371 19.71271,3.68358c12.56555,9.12729 12.56555,9.12729 12.77006,17.63795c0.2045,8.51066 0.2045,8.51066 -20.34835,8.51066c-20.55286,0 -20.55286,0 -19.91721,-12.19424z"/><path d="M506.10792,125.485c3.65105,-4.56497 3.65105,-4.56497 15.5792,-5.35319c11.92814,-0.78821 11.92814,-0.78821 11.92814,17.6861c0,18.47432 0,18.47432 -14.75532,17.13466c-14.75532,-1.33966 -14.75532,-1.33966 -15.08773,-1.70917c-0.33241,-0.36951 -0.33241,-0.36951 -0.82387,-11.78147c-0.49147,-11.41196 -0.49147,-11.41196 3.15959,-15.97693z"/><path d="M67.41566,333.11216c4.25843,-19.70135 4.25843,-19.70135 21.36707,-11.75569c17.10865,7.94566 17.10865,7.94566 16.49586,19.70135c-0.61279,11.75569 -0.61279,11.75569 -21.36707,11.75569c-20.75429,0 -20.75429,0 -16.49586,-19.70135z"/><path d="M291.14486,282.48381c6.91096,13.29168 6.91096,13.29168 -7.08541,19.89482c-13.99636,6.60314 -13.99636,6.60314 -19.39016,4.44697c-5.3938,-2.15617 -5.3938,-2.15617 -9.37183,-11.01948c-3.97803,-8.86331 -3.97803,-8.86331 5.65708,-18.50993c9.63511,-9.64661 9.63511,-9.64661 16.45724,-8.87534c6.82213,0.77127 6.82213,0.77127 13.73308,14.06295z"/><path d="M279.40287,335.37154c-3.00367,-13.62382 -3.00367,-13.62382 9.47236,-19.50971c12.47602,-5.88588 12.47602,-5.88588 13.48398,-5.4623c1.00796,0.42358 1.00796,0.42358 0.53528,19.50971c-0.47268,19.08613 -0.47268,19.08613 -10.48031,19.08613c-10.00763,0 -10.00763,0 -13.0113,-13.62382z"/><path d="M130.39689,47.21868c-2.39991,-2.10591 -2.39991,-2.10591 -0.75675,-21.12388c1.64316,-19.01798 1.64316,-19.01798 15.53312,-19.01798c13.88995,0 13.88995,0 15.28938,15.50479c1.39943,15.50479 1.39943,15.50479 -13.13321,21.12388c-14.53263,5.61909 -14.53263,5.61909 -16.93254,3.51319z"/><path d="M8.0512,329.93298c0,-22.96311 0,-22.96311 21.0681,-25.80144c21.0681,-2.83832 21.0681,-2.83832 24.61946,-0.80893c3.55137,2.0294 3.55137,2.0294 4.46554,4.31286c0.91418,2.28346 0.91418,2.28346 -3.73056,23.77204c-4.64473,21.48858 -4.64473,21.48858 -25.53364,21.48858c-20.8889,0 -20.8889,0 -20.8889,-22.96311z"/><path d="M454.33626,132.34304c2.88793,-7.87383 2.88793,-7.87383 18.80148,-4.81012c15.91355,3.06371 15.91355,3.06371 16.41554,14.72004c0.50199,11.65633 0.50199,11.65633 -13.88967,12.31508c-14.39166,0.65875 -14.39166,0.65875 -19.30347,-6.84621c-4.91181,-7.50496 -4.91181,-7.50496 -2.02388,-15.3788z"/><path d="M135.29754,175.69606c-1.63947,19.08602 -1.63947,19.08602 -10.90637,19.32376c-9.2669,0.23774 -9.2669,0.23774 -17.48429,-11.85343c-8.21739,-12.09117 -8.21739,-12.09117 5.79896,-21.77023c14.01635,-9.67906 14.01635,-9.67906 19.12376,-7.23259c5.10741,2.44647 5.10741,2.44647 3.46794,21.53249z"/><path d="M174.29502,192.4593c-15.27052,9.71057 -15.27052,9.71057 -19.86058,6.35134c-4.59006,-3.35923 -4.59006,-3.35923 -3.01734,-21.66817c1.57272,-18.30894 1.57272,-18.30894 10.79354,-20.04851c9.22082,-1.73957 9.22082,-1.73957 18.29777,11.91487c9.07696,13.65445 9.07696,13.65445 9.06704,13.69717c-0.00992,0.04273 -0.00992,0.04273 -15.28044,9.7533z"/><path d="M203.49977,110.98477c-13.23759,1.2999 -13.23759,1.2999 -18.69702,-8.65607c-5.45942,-9.95596 -5.45942,-9.95596 2.23004,-25.17206c7.68946,-15.21609 7.68946,-15.21609 11.88756,-16.30049c4.1981,-1.0844 4.1981,-1.0844 10.86523,1.48421c6.66713,2.56861 6.66713,2.56861 12.04691,17.5355c5.37978,14.96689 5.37978,14.96689 0.14233,22.38795c-5.23746,7.42106 -5.23746,7.42106 -18.47505,8.72096z"/><path d="M210.86628,266.16732c5.15319,13.01705 5.15319,13.01705 -5.30459,20.49988c-10.45778,7.48283 -10.45778,7.48283 -18.55764,0.15172c-8.09986,-7.33111 -8.09986,-7.33111 -5.66172,-18.91268c2.43815,-11.58157 2.43815,-11.58157 13.40445,-13.16877c10.9663,-1.5872 10.9663,-1.5872 16.1195,11.42985z"/><path d="M274.08133,41.85453c-10.3866,-7.30975 -10.3866,-7.30975 -10.9152,-20.38228c-0.5286,-13.07253 -0.5286,-13.07253 22.38791,-13.07253c22.91651,0 22.91651,0 23.33727,10.40439c0.42076,10.40439 0.42076,10.40439 -12.00131,20.38228c-12.42207,9.9779 -12.42207,9.9779 -22.80867,2.66815z"/><path d="M132.05919,242.81155c-12.10835,11.02143 -12.10835,11.02143 -14.96355,10.27901c-2.8552,-0.74243 -2.8552,-0.74243 -7.64729,-10.34105c-4.7921,-9.59863 -4.7921,-9.59863 1.88306,-17.99821c6.67516,-8.39958 6.67516,-8.39958 14.67642,-8.60485c8.00126,-0.20527 8.00126,-0.20527 12.13264,2.81827c4.13137,3.02354 4.13137,3.02354 5.07923,7.92447c0.94785,4.90093 0.94785,4.90093 -11.1605,15.92236z"/><path d="M57.8105,45.04606c-11.4123,-7.34877 -11.4123,-7.34877 -8.85877,-21.02785c2.55353,-13.67908 2.55353,-13.67908 13.71978,-13.67908c11.16625,0 11.16625,0 14.1831,16.22796c3.01685,16.22796 3.01685,16.22796 -2.30748,21.02785c-5.32433,4.7999 -5.32433,4.7999 -16.73663,-2.54888z"/><path d="M23.54995,242.29464c16.80443,2.22852 16.80443,2.22852 20.90689,23.91691c4.10246,21.68839 4.10246,21.68839 -16.80443,24.505c-20.90689,2.8166 -20.90689,2.8166 -20.90689,-23.91691c0,-26.73352 0,-26.73352 16.80443,-24.505z"/><path d="M451.67875,49.54373c1.44513,-1.76911 1.44513,-1.76911 18.16211,-5.33489c16.71697,-3.56578 16.71697,-3.56578 17.00082,-3.28811c0.28384,0.27767 0.28384,0.27767 2.65017,12.42643c2.36633,12.14876 2.36633,12.14876 -0.78895,16.73073c-3.15528,4.58197 -3.15528,4.58197 -15.52604,6.1195c-12.37076,1.53752 -12.37076,1.53752 -17.657,-11.67352c-5.28624,-13.21104 -5.28624,-13.21104 -3.84111,-14.98015z"/><path d="M359.76228,339.08906c1.37596,-14.6517 1.37596,-14.6517 18.19683,-20.87315c16.82087,-6.22146 16.82087,-6.22146 20.93437,-3.2258c4.1135,2.99566 4.1135,2.99566 5.50957,20.87315c1.39607,17.87749 1.39607,17.87749 -22.31033,17.87749c-23.7064,0 -23.7064,0 -22.33044,-14.6517z"/><path d="M118.11728,25.49255c-1.43211,16.57524 -1.43211,16.57524 -13.41046,15.96875c-11.97835,-0.60648 -11.97835,-0.60648 -14.94701,-16.57524c-2.96866,-15.96875 -2.96866,-15.96875 13.41046,-15.96875c16.37912,0 16.37912,0 14.94701,16.57524z"/><path d="M368.49236,270.33666c12.96985,0.14947 12.96985,0.14947 17.30453,15.85654c4.33468,15.70707 4.33468,15.70707 -12.18302,21.8164c-16.5177,6.10933 -16.5177,6.10933 -25.97757,-2.74696c-9.45986,-8.85629 -9.45986,-8.85629 -0.78683,-21.96587c8.67304,-13.10958 8.67304,-13.10958 21.64288,-12.96011z"/><path d="M217.5373,166.07707c-16.34435,9.26888 -16.34435,9.26888 -26.3132,-5.72723c-9.96885,-14.99611 -9.96885,-14.99611 -4.64203,-23.96461c5.32682,-8.9685 5.32682,-8.9685 17.85791,-10.19901c12.53109,-1.23052 12.53109,-1.23052 20.98638,14.69572c8.45529,15.92624 8.45529,15.92624 -7.88906,25.19512z"/><path d="M233.68369,75.74382c-5.20564,-14.48241 -5.20564,-14.48241 8.00484,-22.72033c13.21048,-8.23792 13.21048,-8.23792 24.05049,-0.60907c10.84002,7.62885 10.84002,7.62885 11.63224,19.49699c0.79223,11.86815 0.79223,11.86815 -1.4013,14.32952c-2.19353,2.46137 -2.19353,2.46137 -19.63708,3.22334c-17.44355,0.76196 -17.44355,0.76196 -22.64919,-13.72045z"/><path d="M400.94699,119.63682c5.20589,-16.0963 5.20589,-16.0963 21.99703,-13.93972c16.79113,2.15658 16.79113,2.15658 18.52629,8.22069c1.73516,6.06411 1.73516,6.06411 -1.18332,14.02123c-2.91848,7.95713 -2.91848,7.95713 -19.68963,12.05216c-16.77115,4.09504 -16.77115,4.09504 -18.71925,3.36009c-1.9481,-0.73495 -1.9481,-0.73495 -4.04255,-4.17655c-2.09446,-3.4416 -2.09446,-3.4416 3.11144,-19.5379z"/><path d="M383.71091,21.69709c2.57456,-11.95639 2.57456,-11.95639 10.99182,-11.95639c8.41726,0 8.41726,0 14.04121,16.39033c5.62394,16.39033 5.62394,16.39033 -0.40615,20.1613c-6.0301,3.77096 -6.0301,3.77096 -16.61576,-4.43394c-10.58567,-8.20491 -10.58567,-8.20491 -8.01111,-20.1613z"/><path d="M502.3289,183.38709c1.97402,-14.74194 1.97402,-14.74194 16.00836,-13.46774c14.03434,1.2742 14.03434,1.2742 14.03434,15.2657c0,13.99149 0,13.99149 -12.81185,16.00413c-12.81185,2.01264 -12.81185,2.01264 -16.00836,-0.52376c-3.19652,-2.5364 -3.19652,-2.5364 -1.22249,-17.27833z"/><path d="M426.81881,257.34648c19.29721,4.51134 19.29721,4.51134 22.61138,8.60514c3.31417,4.0938 3.31417,4.0938 3.11827,14.43675c-0.1959,10.34295 -0.1959,10.34295 -19.71591,17.38461c-19.52001,7.04166 -19.52001,7.04166 -23.5747,4.08883c-4.0547,-2.95283 -4.0547,-2.95283 -8.40583,-18.71953c-4.35114,-15.7667 -4.35114,-15.7667 1.15923,-23.03692c5.51037,-7.27022 5.51037,-7.27022 24.80757,-2.75888z"/><path d="M500.09675,78.18855c3.10461,-4.50839 3.10461,-4.50839 18.36417,-3.95377c15.25956,0.55462 15.25956,0.55462 15.25956,16.30114c0,15.74652 0,15.74652 -12.46971,16.57053c-12.46971,0.824 -12.46971,0.824 -18.36417,-11.79275c-5.89446,-12.61675 -5.89446,-12.61675 -2.78985,-17.12515z"/><path d="M30.06882,172.98923c-20.80122,1.04992 -20.80122,1.04992 -20.80122,-18.56139c0,-19.61131 0,-19.61131 9.17075,-22.09436c9.17075,-2.48305 9.17075,-2.48305 23.20712,5.83567c14.03637,8.31871 14.03637,8.31871 15.96699,16.13247c1.93062,7.81375 1.93062,7.81375 -2.4059,12.72572c-4.33652,4.91197 -4.33652,4.91197 -25.13773,5.96189z"/><path d="M418.70443,171.64317c-8.40981,-13.41536 -8.40981,-13.41536 5.50883,-16.81389c13.91864,-3.39853 13.91864,-3.39853 18.03815,2.89584c4.11951,6.29437 4.11951,6.29437 0.8241,16.51913c-3.29541,10.22476 -3.29541,10.22476 -9.62834,10.51952c-6.33293,0.29476 -6.33293,0.29476 -14.74273,-13.12059z"/><path d="M215.53239,49.8135c-6.64268,-2.55919 -6.64268,-2.55919 -5.06068,-22.53019c1.582,-19.971 1.582,-19.971 19.67699,-19.971c18.09499,0 18.09499,0 18.66303,14.0479c0.56804,14.0479 0.56804,14.0479 -13.03431,22.53019c-13.60235,8.48229 -13.60235,8.48229 -20.24503,5.92309z"/><path d="M156.68308,139.74705c-10.41675,1.96519 -10.41675,1.96519 -15.95168,-0.68606c-5.53493,-2.65125 -5.53493,-2.65125 -10.99468,-15.43944c-5.45976,-12.78818 -5.45976,-12.78818 1.5001,-21.33346c6.95986,-8.54528 6.95986,-8.54528 21.57475,-5.44542c14.61489,3.09986 14.61489,3.09986 19.93089,12.79427c5.316,9.69441 5.316,9.69441 -0.16332,18.91966c-5.47931,9.22525 -5.47931,9.22525 -15.89607,11.19044z"/><path d="M187.0002,307.5958c-0.09485,2.58532 -0.09485,2.58532 -10.37447,12.72444c-10.27962,10.13912 -10.27962,10.13912 -23.17253,0.77404c-12.89292,-9.36508 -12.89292,-9.36508 -11.41416,-17.34675c1.47875,-7.98167 1.47875,-7.98167 14.25133,-11.51972c12.77258,-3.53805 12.77258,-3.53805 21.78863,4.6223c9.01606,8.16035 9.01606,8.16035 8.92121,10.74567z"/><path d="M181.43563,41.30759c-8.43792,-4.67886 -8.43792,-4.67886 -9.64078,-18.00585c-1.20286,-13.32698 -1.20286,-13.32698 13.36863,-13.32698c14.57149,0 14.57149,0 13.21836,17.08173c-1.35313,17.08173 -1.35313,17.08173 -4.93071,18.00585c-3.57758,0.92411 -3.57758,0.92411 -12.0155,-3.75475z"/><path d="M407.74925,73.68358c2.73107,-10.15535 2.73107,-10.15535 9.09738,-14.13657c6.3663,-3.98122 6.3663,-3.98122 14.19604,-3.85569c7.82973,0.12553 7.82973,0.12553 12.95523,12.93485c5.1255,12.80932 5.1255,12.80932 1.38598,19.31202c-3.73952,6.5027 -3.73952,6.5027 -20.49711,4.35043c-16.75759,-2.15227 -16.75759,-2.15227 -18.31309,-5.30098c-1.55551,-3.14871 -1.55551,-3.14871 1.17557,-13.30406z"/><path d="M303.85453,144.93287c-13.74668,-2.68817 -13.74668,-2.68817 -15.21742,-23.18311c-1.47075,-20.49494 -1.47075,-20.49494 0.7834,-23.02433c2.25415,-2.5294 2.25415,-2.5294 21.24511,-0.05865c18.99096,2.47075 18.99096,2.47075 22.39243,15.69577c3.40147,13.22502 3.40147,13.22502 -6.02769,23.24175c-9.42915,10.01674 -9.42915,10.01674 -23.17583,7.32856z"/></g></svg>